<?xml version="1.0" standalone="no"?>
<!DOCTYPE svg PUBLIC "-//W3C//DTD SVG 20010904//EN"
 "http://www.w3.org/TR/2001/REC-SVG-20010904/DTD/svg10.dtd">
<svg version="1.0" xmlns="http://www.w3.org/2000/svg"
 width="361.000000pt" height="158.000000pt" viewBox="0 0 361.000000 158.000000"
 preserveAspectRatio="xMidYMid meet">
<metadata>
Created by potrace 1.16, written by Peter Selinger 2001-2019
</metadata>
<g transform="translate(0.000000,158.000000) scale(0.100000,-0.100000)"
fill="#000000" stroke="none">
<path d="M590 1188 c-142 -30 -209 -53 -326 -108 -71 -34 -151 -67 -179 -74
-72 -19 -85 -45 -85 -168 0 -116 7 -139 54 -166 43 -26 45 -16 9 40 -21 32
-28 56 -31 108 -7 119 4 124 188 91 198 -36 318 -44 567 -38 305 7 387 25 123
26 -230 1 -470 16 -586 36 -48 9 -90 18 -92 20 -9 8 38 71 65 86 36 22 175 63
280 84 80 16 84 16 128 -4 49 -22 178 -138 169 -152 -3 -5 -71 -9 -152 -10
-81 -1 -158 -4 -172 -8 -47 -14 267 -23 563 -16 452 11 581 -6 665 -87 21 -21
32 -27 32 -17 0 8 -15 29 -32 46 -83 78 -156 92 -523 99 -159 3 -304 10 -321
15 -46 14 -157 130 -140 147 4 3 57 0 118 -6 94 -10 124 -18 188 -48 160 -77
181 -80 73 -10 -73 47 -155 84 -242 110 -62 18 -265 21 -341 4z"/>
<path d="M1963 893 c-41 -5 -47 -17 -67 -132 -21 -126 -21 -136 9 -149 37 -17
42 -15 48 16 3 15 21 45 41 67 l35 40 -6 -51 c-5 -44 -2 -55 16 -73 31 -31 48
-26 55 17 3 20 15 54 26 74 l20 37 -26 31 c-36 42 -65 39 -109 -12 -42 -48
-42 -41 1 68 13 33 24 64 24 67 0 7 -9 7 -67 0z"/>
<path d="M1387 865 c-21 -7 -42 -16 -45 -20 -12 -12 -3 -138 14 -187 21 -63
35 -74 82 -60 71 21 127 66 156 123 34 69 33 85 -6 109 -47 29 -54 26 -68 -27
-14 -59 -50 -143 -60 -143 -23 0 -20 118 6 203 7 21 -24 22 -79 2z"/>
<path d="M2576 865 c-21 -7 -43 -20 -48 -27 -13 -20 0 -132 23 -194 24 -63 37
-67 114 -30 59 28 108 76 129 128 23 53 20 66 -16 88 -45 27 -55 25 -63 -12
-11 -49 -56 -158 -65 -158 -24 0 -21 135 5 203 9 21 -22 22 -79 2z"/>
<path d="M1080 852 c-57 -31 -100 -110 -100 -185 l0 -28 -67 5 c-38 3 -156 10
-263 16 -107 6 -204 13 -215 15 -13 3 -26 20 -37 53 -11 31 -33 63 -58 86 -47
42 -76 49 -38 9 34 -37 46 -61 59 -122 9 -46 14 -51 37 -52 15 0 36 -2 47 -4
11 -1 61 -6 110 -9 50 -3 164 -13 255 -21 243 -22 220 -27 220 48 0 74 22 121
71 155 29 20 44 23 96 20 57 -4 60 -3 40 11 -34 24 -116 25 -157 3z"/>
<path d="M3272 813 c-48 -17 -58 -39 -48 -110 6 -45 40 -113 56 -113 4 0 30
16 58 35 l50 34 21 -35 c17 -29 25 -34 44 -28 62 19 106 79 115 160 4 39 3 41
-24 47 -16 3 -36 8 -45 12 -13 5 -15 1 -12 -18 3 -14 -3 -51 -12 -82 -20 -71
-38 -62 -39 20 -1 59 -2 60 -40 45 -21 -8 -26 -16 -26 -43 0 -31 -24 -67 -44
-67 -9 0 -2 105 9 138 9 26 -1 27 -63 5z"/>
<path d="M141 785 c-55 -63 -37 -166 37 -201 71 -34 142 18 150 109 4 49 2 57
-28 90 -29 33 -37 37 -80 37 -42 0 -52 -4 -79 -35z"/>
<path d="M1133 795 c-90 -39 -106 -185 -28 -254 72 -62 159 -46 203 39 27 54
28 92 2 147 -33 73 -104 100 -177 68z"/>
<path d="M1760 794 c-19 -7 -47 -13 -62 -13 -22 -1 -32 -9 -48 -40 -10 -22
-22 -57 -26 -79 -6 -39 -5 -40 38 -61 24 -11 54 -21 67 -21 30 0 97 36 105 56
9 23 3 26 -28 14 -33 -12 -96 -13 -96 -1 0 5 19 14 43 20 88 22 121 75 74 119
-13 12 -25 21 -28 21 -2 -1 -20 -7 -39 -15z"/>
<path d="M3095 794 c-22 -7 -52 -13 -66 -13 -22 -1 -30 -10 -47 -49 -11 -26
-22 -61 -24 -77 -3 -27 2 -32 45 -54 54 -27 98 -24 141 10 30 24 36 55 9 44
-10 -4 -40 -10 -67 -13 -60 -6 -56 12 6 29 78 21 110 57 88 98 -17 32 -41 39
-85 25z"/>
<path d="M2171 763 c-6 -21 -11 -61 -11 -88 0 -46 3 -52 31 -69 35 -21 48 -12
49 34 0 14 11 49 25 77 l24 53 -51 15 c-29 8 -53 15 -54 15 -2 0 -8 -17 -13
-37z"/>
<path d="M2841 778 c-5 -13 -12 -51 -16 -84 -7 -60 -6 -62 23 -83 38 -27 52
-27 52 2 1 19 23 89 44 139 8 18 -6 27 -67 42 -22 5 -29 2 -36 -16z"/>
</g>
</svg>
